<mxfile host="Electron" modified="2024-02-09T22:31:40.777Z" agent="Mozilla/5.0 (Windows NT 10.0; Win64; x64) AppleWebKit/537.36 (KHTML, like Gecko) draw.io/23.0.2 Chrome/120.0.6099.109 Electron/28.1.0 Safari/537.36" etag="yUdzbx0seqPcEFONG7wL" version="23.0.2" type="device">
  <diagram name="Page-1" id="i7Juj5QhyEdBRqBnNom3">
    <mxGraphModel dx="1195" dy="697" grid="1" gridSize="10" guides="1" tooltips="1" connect="1" arrows="1" fold="1" page="1" pageScale="1" pageWidth="1200" pageHeight="1920" math="0" shadow="0">
      <root>
        <mxCell id="0" />
        <mxCell id="1" parent="0" />
        <mxCell id="OVMNsgc5iX0UsMJncxmt-4" value="" style="edgeStyle=orthogonalEdgeStyle;rounded=0;orthogonalLoop=1;jettySize=auto;html=1;" edge="1" parent="1" target="OVMNsgc5iX0UsMJncxmt-3">
          <mxGeometry relative="1" as="geometry">
            <mxPoint x="600" y="160" as="sourcePoint" />
          </mxGeometry>
        </mxCell>
        <mxCell id="OVMNsgc5iX0UsMJncxmt-15" style="edgeStyle=orthogonalEdgeStyle;rounded=0;orthogonalLoop=1;jettySize=auto;html=1;exitX=0.5;exitY=1;exitDx=0;exitDy=0;exitPerimeter=0;entryX=0.5;entryY=0;entryDx=0;entryDy=0;" edge="1" parent="1" source="OVMNsgc5iX0UsMJncxmt-2" target="OVMNsgc5iX0UsMJncxmt-13">
          <mxGeometry relative="1" as="geometry" />
        </mxCell>
        <mxCell id="OVMNsgc5iX0UsMJncxmt-2" value="Start" style="strokeWidth=2;html=1;shape=mxgraph.flowchart.start_1;whiteSpace=wrap;" vertex="1" parent="1">
          <mxGeometry x="550" y="30" width="100" height="60" as="geometry" />
        </mxCell>
        <mxCell id="OVMNsgc5iX0UsMJncxmt-6" value="" style="edgeStyle=orthogonalEdgeStyle;rounded=0;orthogonalLoop=1;jettySize=auto;html=1;entryX=0.5;entryY=0;entryDx=0;entryDy=0;" edge="1" parent="1" source="OVMNsgc5iX0UsMJncxmt-3" target="OVMNsgc5iX0UsMJncxmt-5">
          <mxGeometry relative="1" as="geometry" />
        </mxCell>
        <mxCell id="OVMNsgc5iX0UsMJncxmt-35" value="Yes" style="edgeLabel;html=1;align=center;verticalAlign=middle;resizable=0;points=[];" vertex="1" connectable="0" parent="OVMNsgc5iX0UsMJncxmt-6">
          <mxGeometry x="-0.2756" relative="1" as="geometry">
            <mxPoint as="offset" />
          </mxGeometry>
        </mxCell>
        <mxCell id="OVMNsgc5iX0UsMJncxmt-3" value="Not at School?" style="rhombus;whiteSpace=wrap;html=1;strokeWidth=2;" vertex="1" parent="1">
          <mxGeometry x="540" y="200" width="120" height="60" as="geometry" />
        </mxCell>
        <mxCell id="OVMNsgc5iX0UsMJncxmt-8" value="" style="edgeStyle=orthogonalEdgeStyle;rounded=0;orthogonalLoop=1;jettySize=auto;html=1;" edge="1" parent="1" source="OVMNsgc5iX0UsMJncxmt-5" target="OVMNsgc5iX0UsMJncxmt-7">
          <mxGeometry relative="1" as="geometry" />
        </mxCell>
        <mxCell id="OVMNsgc5iX0UsMJncxmt-5" value="Keep Walking" style="whiteSpace=wrap;html=1;strokeWidth=2;" vertex="1" parent="1">
          <mxGeometry x="680" y="250" width="80" height="40" as="geometry" />
        </mxCell>
        <mxCell id="OVMNsgc5iX0UsMJncxmt-10" value="" style="edgeStyle=orthogonalEdgeStyle;rounded=0;orthogonalLoop=1;jettySize=auto;html=1;entryX=0.5;entryY=0;entryDx=0;entryDy=0;" edge="1" parent="1" source="OVMNsgc5iX0UsMJncxmt-7" target="OVMNsgc5iX0UsMJncxmt-9">
          <mxGeometry relative="1" as="geometry" />
        </mxCell>
        <mxCell id="OVMNsgc5iX0UsMJncxmt-22" value="No" style="edgeLabel;html=1;align=center;verticalAlign=middle;resizable=0;points=[];" vertex="1" connectable="0" parent="OVMNsgc5iX0UsMJncxmt-10">
          <mxGeometry x="-0.2233" y="-2" relative="1" as="geometry">
            <mxPoint as="offset" />
          </mxGeometry>
        </mxCell>
        <mxCell id="OVMNsgc5iX0UsMJncxmt-24" value="" style="edgeStyle=orthogonalEdgeStyle;rounded=0;orthogonalLoop=1;jettySize=auto;html=1;entryX=0.5;entryY=0;entryDx=0;entryDy=0;" edge="1" parent="1" source="OVMNsgc5iX0UsMJncxmt-7" target="OVMNsgc5iX0UsMJncxmt-23">
          <mxGeometry relative="1" as="geometry" />
        </mxCell>
        <mxCell id="OVMNsgc5iX0UsMJncxmt-48" value="Yes" style="edgeLabel;html=1;align=center;verticalAlign=middle;resizable=0;points=[];" vertex="1" connectable="0" parent="OVMNsgc5iX0UsMJncxmt-24">
          <mxGeometry x="-0.4113" relative="1" as="geometry">
            <mxPoint as="offset" />
          </mxGeometry>
        </mxCell>
        <mxCell id="OVMNsgc5iX0UsMJncxmt-7" value="is at School?" style="rhombus;whiteSpace=wrap;html=1;strokeWidth=2;" vertex="1" parent="1">
          <mxGeometry x="670" y="320" width="100" height="60" as="geometry" />
        </mxCell>
        <mxCell id="OVMNsgc5iX0UsMJncxmt-11" style="edgeStyle=orthogonalEdgeStyle;rounded=0;orthogonalLoop=1;jettySize=auto;html=1;exitX=1;exitY=0.5;exitDx=0;exitDy=0;" edge="1" parent="1" source="OVMNsgc5iX0UsMJncxmt-9">
          <mxGeometry relative="1" as="geometry">
            <mxPoint x="565" y="360" as="targetPoint" />
            <Array as="points">
              <mxPoint x="660" y="425" />
              <mxPoint x="660" y="360" />
            </Array>
          </mxGeometry>
        </mxCell>
        <mxCell id="OVMNsgc5iX0UsMJncxmt-50" value="Yes" style="edgeLabel;html=1;align=center;verticalAlign=middle;resizable=0;points=[];" vertex="1" connectable="0" parent="OVMNsgc5iX0UsMJncxmt-11">
          <mxGeometry x="-0.8187" y="1" relative="1" as="geometry">
            <mxPoint as="offset" />
          </mxGeometry>
        </mxCell>
        <mxCell id="OVMNsgc5iX0UsMJncxmt-19" value="" style="edgeStyle=orthogonalEdgeStyle;rounded=0;orthogonalLoop=1;jettySize=auto;html=1;" edge="1" parent="1" source="OVMNsgc5iX0UsMJncxmt-9" target="OVMNsgc5iX0UsMJncxmt-18">
          <mxGeometry relative="1" as="geometry" />
        </mxCell>
        <mxCell id="OVMNsgc5iX0UsMJncxmt-51" value="No" style="edgeLabel;html=1;align=center;verticalAlign=middle;resizable=0;points=[];" vertex="1" connectable="0" parent="OVMNsgc5iX0UsMJncxmt-19">
          <mxGeometry x="-0.616" y="1" relative="1" as="geometry">
            <mxPoint as="offset" />
          </mxGeometry>
        </mxCell>
        <mxCell id="OVMNsgc5iX0UsMJncxmt-9" value="steps &amp;gt; stepsNeeded" style="rhombus;whiteSpace=wrap;html=1;strokeWidth=2;" vertex="1" parent="1">
          <mxGeometry x="510" y="380" width="110" height="90" as="geometry" />
        </mxCell>
        <mxCell id="OVMNsgc5iX0UsMJncxmt-12" value="stepsNeeded + 1" style="rounded=1;whiteSpace=wrap;html=1;absoluteArcSize=1;arcSize=14;strokeWidth=2;" vertex="1" parent="1">
          <mxGeometry x="620" y="370" width="80" height="30" as="geometry" />
        </mxCell>
        <mxCell id="OVMNsgc5iX0UsMJncxmt-13" value="Declarations&lt;br&gt;&lt;span style=&quot;white-space: pre;&quot;&gt;&#x9;&lt;/span&gt;num steps = 0&lt;br&gt;&lt;span style=&quot;white-space: pre;&quot;&gt;&#x9;&lt;/span&gt;num stepsNeeded = 0" style="rounded=1;whiteSpace=wrap;html=1;absoluteArcSize=1;arcSize=14;strokeWidth=2;align=left;" vertex="1" parent="1">
          <mxGeometry x="525" y="110" width="150" height="50" as="geometry" />
        </mxCell>
        <mxCell id="OVMNsgc5iX0UsMJncxmt-21" value="" style="edgeStyle=orthogonalEdgeStyle;rounded=0;orthogonalLoop=1;jettySize=auto;html=1;" edge="1" parent="1" source="OVMNsgc5iX0UsMJncxmt-18" target="OVMNsgc5iX0UsMJncxmt-20">
          <mxGeometry relative="1" as="geometry" />
        </mxCell>
        <mxCell id="OVMNsgc5iX0UsMJncxmt-18" value="output &quot;Steps :&quot; + steps&amp;nbsp;" style="shape=parallelogram;perimeter=parallelogramPerimeter;whiteSpace=wrap;html=1;fixedSize=1;strokeWidth=2;" vertex="1" parent="1">
          <mxGeometry x="505" y="500" width="120" height="30" as="geometry" />
        </mxCell>
        <mxCell id="OVMNsgc5iX0UsMJncxmt-20" value="stepsNeeded - 1" style="whiteSpace=wrap;html=1;strokeWidth=2;" vertex="1" parent="1">
          <mxGeometry x="505" y="550" width="120" height="30" as="geometry" />
        </mxCell>
        <mxCell id="OVMNsgc5iX0UsMJncxmt-29" style="edgeStyle=orthogonalEdgeStyle;rounded=0;orthogonalLoop=1;jettySize=auto;html=1;entryX=0.5;entryY=0;entryDx=0;entryDy=0;exitX=1;exitY=0.5;exitDx=0;exitDy=0;" edge="1" parent="1" source="OVMNsgc5iX0UsMJncxmt-23" target="OVMNsgc5iX0UsMJncxmt-28">
          <mxGeometry relative="1" as="geometry" />
        </mxCell>
        <mxCell id="OVMNsgc5iX0UsMJncxmt-30" value="Yes" style="edgeLabel;html=1;align=center;verticalAlign=middle;resizable=0;points=[];" vertex="1" connectable="0" parent="OVMNsgc5iX0UsMJncxmt-29">
          <mxGeometry x="-0.5597" y="2" relative="1" as="geometry">
            <mxPoint as="offset" />
          </mxGeometry>
        </mxCell>
        <mxCell id="OVMNsgc5iX0UsMJncxmt-23" value="is Address correct?" style="rhombus;whiteSpace=wrap;html=1;strokeWidth=2;" vertex="1" parent="1">
          <mxGeometry x="800" y="395" width="80" height="60" as="geometry" />
        </mxCell>
        <mxCell id="OVMNsgc5iX0UsMJncxmt-28" value="conform address" style="whiteSpace=wrap;html=1;strokeWidth=2;" vertex="1" parent="1">
          <mxGeometry x="870" y="440" width="100" height="30" as="geometry" />
        </mxCell>
        <mxCell id="OVMNsgc5iX0UsMJncxmt-33" value="" style="endArrow=none;html=1;rounded=0;" edge="1" parent="1">
          <mxGeometry width="50" height="50" relative="1" as="geometry">
            <mxPoint x="840" y="520" as="sourcePoint" />
            <mxPoint x="920" y="520" as="targetPoint" />
          </mxGeometry>
        </mxCell>
        <mxCell id="OVMNsgc5iX0UsMJncxmt-34" value="" style="endArrow=none;html=1;rounded=0;entryX=0.5;entryY=1;entryDx=0;entryDy=0;" edge="1" parent="1" target="OVMNsgc5iX0UsMJncxmt-55">
          <mxGeometry width="50" height="50" relative="1" as="geometry">
            <mxPoint x="920" y="520" as="sourcePoint" />
            <mxPoint x="960" y="590" as="targetPoint" />
          </mxGeometry>
        </mxCell>
        <mxCell id="OVMNsgc5iX0UsMJncxmt-37" value="" style="endArrow=none;html=1;rounded=0;entryX=0.5;entryY=1;entryDx=0;entryDy=0;" edge="1" parent="1" target="OVMNsgc5iX0UsMJncxmt-20">
          <mxGeometry width="50" height="50" relative="1" as="geometry">
            <mxPoint x="565" y="600" as="sourcePoint" />
            <mxPoint x="550" y="630" as="targetPoint" />
          </mxGeometry>
        </mxCell>
        <mxCell id="OVMNsgc5iX0UsMJncxmt-38" value="" style="endArrow=none;html=1;rounded=0;entryX=0;entryY=0.5;entryDx=0;entryDy=0;" edge="1" parent="1" target="OVMNsgc5iX0UsMJncxmt-23">
          <mxGeometry width="50" height="50" relative="1" as="geometry">
            <mxPoint x="770" y="425" as="sourcePoint" />
            <mxPoint x="800" y="480" as="targetPoint" />
          </mxGeometry>
        </mxCell>
        <mxCell id="OVMNsgc5iX0UsMJncxmt-49" value="No" style="edgeLabel;html=1;align=center;verticalAlign=middle;resizable=0;points=[];" vertex="1" connectable="0" parent="OVMNsgc5iX0UsMJncxmt-38">
          <mxGeometry x="-0.0381" relative="1" as="geometry">
            <mxPoint as="offset" />
          </mxGeometry>
        </mxCell>
        <mxCell id="OVMNsgc5iX0UsMJncxmt-40" value="" style="endArrow=none;html=1;rounded=0;" edge="1" parent="1">
          <mxGeometry width="50" height="50" relative="1" as="geometry">
            <mxPoint x="770" y="520" as="sourcePoint" />
            <mxPoint x="770" y="425" as="targetPoint" />
          </mxGeometry>
        </mxCell>
        <mxCell id="OVMNsgc5iX0UsMJncxmt-41" value="" style="endArrow=none;html=1;rounded=0;" edge="1" parent="1">
          <mxGeometry width="50" height="50" relative="1" as="geometry">
            <mxPoint x="840" y="520" as="sourcePoint" />
            <mxPoint x="770" y="520" as="targetPoint" />
          </mxGeometry>
        </mxCell>
        <mxCell id="OVMNsgc5iX0UsMJncxmt-42" value="" style="endArrow=none;html=1;rounded=0;" edge="1" parent="1">
          <mxGeometry width="50" height="50" relative="1" as="geometry">
            <mxPoint x="840" y="600" as="sourcePoint" />
            <mxPoint x="840" y="520" as="targetPoint" />
          </mxGeometry>
        </mxCell>
        <mxCell id="OVMNsgc5iX0UsMJncxmt-43" value="" style="endArrow=none;html=1;rounded=0;" edge="1" parent="1">
          <mxGeometry width="50" height="50" relative="1" as="geometry">
            <mxPoint x="840" y="600" as="sourcePoint" />
            <mxPoint x="565" y="599" as="targetPoint" />
          </mxGeometry>
        </mxCell>
        <mxCell id="OVMNsgc5iX0UsMJncxmt-44" value="" style="endArrow=none;html=1;rounded=0;" edge="1" parent="1">
          <mxGeometry width="50" height="50" relative="1" as="geometry">
            <mxPoint x="700" y="640" as="sourcePoint" />
            <mxPoint x="700" y="600" as="targetPoint" />
          </mxGeometry>
        </mxCell>
        <mxCell id="OVMNsgc5iX0UsMJncxmt-45" value="" style="endArrow=none;html=1;rounded=0;" edge="1" parent="1">
          <mxGeometry width="50" height="50" relative="1" as="geometry">
            <mxPoint x="1000" y="640" as="sourcePoint" />
            <mxPoint x="700" y="640" as="targetPoint" />
          </mxGeometry>
        </mxCell>
        <mxCell id="OVMNsgc5iX0UsMJncxmt-46" value="" style="endArrow=none;html=1;rounded=0;" edge="1" parent="1">
          <mxGeometry width="50" height="50" relative="1" as="geometry">
            <mxPoint x="1000" y="640" as="sourcePoint" />
            <mxPoint x="1000" y="170" as="targetPoint" />
          </mxGeometry>
        </mxCell>
        <mxCell id="OVMNsgc5iX0UsMJncxmt-47" value="" style="endArrow=classic;html=1;rounded=0;" edge="1" parent="1">
          <mxGeometry width="50" height="50" relative="1" as="geometry">
            <mxPoint x="1000" y="170" as="sourcePoint" />
            <mxPoint x="600" y="170" as="targetPoint" />
          </mxGeometry>
        </mxCell>
        <mxCell id="OVMNsgc5iX0UsMJncxmt-52" value="" style="endArrow=classic;html=1;rounded=0;exitX=0.5;exitY=1;exitDx=0;exitDy=0;" edge="1" parent="1" source="OVMNsgc5iX0UsMJncxmt-3">
          <mxGeometry width="50" height="50" relative="1" as="geometry">
            <mxPoint x="530" y="320" as="sourcePoint" />
            <mxPoint x="600" y="290" as="targetPoint" />
          </mxGeometry>
        </mxCell>
        <mxCell id="OVMNsgc5iX0UsMJncxmt-53" value="No" style="edgeLabel;html=1;align=center;verticalAlign=middle;resizable=0;points=[];" vertex="1" connectable="0" parent="OVMNsgc5iX0UsMJncxmt-52">
          <mxGeometry x="-0.337" y="-1" relative="1" as="geometry">
            <mxPoint as="offset" />
          </mxGeometry>
        </mxCell>
        <mxCell id="OVMNsgc5iX0UsMJncxmt-54" value="Stop" style="strokeWidth=2;html=1;shape=mxgraph.flowchart.start_1;whiteSpace=wrap;" vertex="1" parent="1">
          <mxGeometry x="570" y="290" width="60" height="30" as="geometry" />
        </mxCell>
        <mxCell id="OVMNsgc5iX0UsMJncxmt-55" value="At School" style="whiteSpace=wrap;html=1;strokeWidth=2;" vertex="1" parent="1">
          <mxGeometry x="870" y="490" width="100" height="20" as="geometry" />
        </mxCell>
        <mxCell id="OVMNsgc5iX0UsMJncxmt-56" value="" style="endArrow=classic;html=1;rounded=0;exitX=0.5;exitY=1;exitDx=0;exitDy=0;entryX=0.5;entryY=0;entryDx=0;entryDy=0;" edge="1" parent="1" source="OVMNsgc5iX0UsMJncxmt-28" target="OVMNsgc5iX0UsMJncxmt-55">
          <mxGeometry width="50" height="50" relative="1" as="geometry">
            <mxPoint x="800" y="500" as="sourcePoint" />
            <mxPoint x="850" y="450" as="targetPoint" />
          </mxGeometry>
        </mxCell>
        <mxCell id="OVMNsgc5iX0UsMJncxmt-57" value="7." style="text;html=1;strokeColor=none;fillColor=none;align=center;verticalAlign=middle;whiteSpace=wrap;rounded=0;" vertex="1" parent="1">
          <mxGeometry x="480" y="30" width="60" height="30" as="geometry" />
        </mxCell>
      </root>
    </mxGraphModel>
  </diagram>
</mxfile>
